<svg xmlns="http://www.w3.org/2000/svg" xmlns:xlink="http://www.w3.org/1999/xlink" width="800" height="600" viewBox="0 0 800 600">
  <metadata><?xpacket begin="﻿" id="W5M0MpCehiHzreSzNTczkc9d"?>
<x:xmpmeta xmlns:x="adobe:ns:meta/" x:xmptk="Adobe XMP Core 5.6-c142 79.160924, 2017/07/13-01:06:39        ">
   <rdf:RDF xmlns:rdf="http://www.w3.org/1999/02/22-rdf-syntax-ns#">
      <rdf:Description rdf:about=""/>
   </rdf:RDF>
</x:xmpmeta>
                                                                                                    
                                                                                                    
                                                                                                    
                                                                                                    
                                                                                                    
                                                                                                    
                                                                                                    
                                                                                                    
                                                                                                    
                                                                                                    
                                                                                                    
                                                                                                    
                                                                                                    
                                                                                                    
                                                                                                    
                                                                                                    
                                                                                                    
                                                                                                    
                                                                                                    
                                                                                                    
                           
<?xpacket end="w"?></metadata>
<defs>
    <style>
      .cls-1 {
        fill: #262626;
      }

      .cls-2, .cls-3 {
        fill: #8aa6d6;
      }

      .cls-2, .cls-3, .cls-4 {
        fill-rule: evenodd;
      }

      .cls-2 {
        filter: url(#filter);
      }

      .cls-3 {
        filter: url(#filter-2);
      }

      .cls-4 {
        fill: #f4f8fb;
      }
    </style>
    <filter id="filter" x="57.969" y="26" width="95.406" height="526" filterUnits="userSpaceOnUse">
      <feFlood result="flood" flood-color="#262626"/>
      <feComposite result="composite" operator="in" in2="SourceGraphic"/>
      <feBlend result="blend" in2="SourceGraphic"/>
    </filter>
    <filter id="filter-2" x="671.781" y="28.375" width="70.25" height="523.625" filterUnits="userSpaceOnUse">
      <feFlood result="flood" flood-color="#262626"/>
      <feComposite result="composite" operator="in" in2="SourceGraphic"/>
      <feBlend result="blend" in2="SourceGraphic"/>
    </filter>
  </defs>
  <circle class="cls-1" cx="407.5" cy="323.5" r="228.5"/>
  <path id="Ellipse_2_copie" data-name="Ellipse 2 copie" class="cls-2" d="M108.108,26c-0.549-.019-8.681,137.1-8.53,136.566,0.14-.5-6.97,0-6.148,0,0.4,0-6.276-136.923-6.765-136.566-0.4.3-7.936,136.423-9.53,136.566-4.848.434-3.107-.088-4.148,0-2.042-.828-3-136.566-3-136.566s-13.1,61.883-11.913,119,30.973,76.163,30.973,76.163l-14.3,161.847S59.053,552,105.726,552c46.6,0,30.973-168.986,30.973-168.986L122.4,221.167c3.308,0.59,31.563-28.79,30.973-76.163-0.659-52.871-9.53-119-9.53-119s-2.4,136.8-4.383,136.566c-0.419-.05-3.169.139-4.148,0C134.79,162.49,128.03,26.129,127.169,26c-0.522-.078-6.138,136.547-7.148,136.566-1.37.024-4.168,0.043-5.148,0"/>
  <path id="Ellipse_2_copie_2" data-name="Ellipse 2 copie 2" class="cls-3" d="M691.836,268.769L677.541,383.014S661.841,552,708.514,552c46.6,0,30.973-168.986,30.973-168.986L725.192,268.769C745.972,149.561,732.34,28.38,732.34,28.38l-19.061,2.38C670.393,54.561,656.5,189.036,691.836,268.769Z"/>
  <path id="NO_PICTURE" data-name="NO PICTURE" class="cls-4" d="M233.377,348V327.262c0-8.064-.144-13.9-0.5-20.018l0.216-.072a153.888,153.888,0,0,0,9.073,16.2L257.571,348h6.337V299.468H258v20.306c0,7.56.144,13.465,0.72,19.945l-0.144.072a137.242,137.242,0,0,0-8.713-15.769l-15.553-24.554h-6.841V348h5.905Zm61.128-49.324c-12.961,0-22.538,10.081-22.538,25.49,0,14.689,9,24.626,21.818,24.626,12.385,0,22.538-8.857,22.538-25.562C316.323,308.829,307.755,298.676,294.505,298.676Zm-0.288,5.112c10.441,0,15.482,10.081,15.482,19.73,0,11.017-5.617,20.162-15.554,20.162-9.864,0-15.481-9.289-15.481-19.658C278.664,313.365,283.848,303.788,294.217,303.788ZM339.719,348h6.264V328.558a21.57,21.57,0,0,0,5.041.432c6.12,0,11.521-1.8,14.833-5.328,2.448-2.52,3.744-5.977,3.744-10.369a13.049,13.049,0,0,0-4.248-10.153c-2.88-2.592-7.417-4.032-13.609-4.032a72.605,72.605,0,0,0-12.025.936V348Zm6.264-43.42a26.3,26.3,0,0,1,5.9-.5c6.912,0,11.449,3.1,11.449,9.5,0,6.7-4.609,10.369-12.169,10.369a21.01,21.01,0,0,1-5.185-.5V304.58Zm32.04-5.112V348h6.264V299.468h-6.264Zm49.826,41.979a25.058,25.058,0,0,1-10.225,2.017c-11.809,0-18.649-7.633-18.649-19.514,0-12.745,7.56-20.018,18.937-20.018a22.818,22.818,0,0,1,9.793,2.016l1.512-5.112c-1.656-.864-5.472-2.16-11.521-2.16-15.049,0-25.346,10.3-25.346,25.49,0,15.913,10.3,24.554,23.978,24.554,5.905,0,10.513-1.152,12.817-2.3ZM448.222,348h6.337V304.8h14.833v-5.328H433.461V304.8h14.761V348Zm26.5-48.532v28.586c0,15.05,7.489,20.738,17.426,20.738,10.512,0,18.361-6.12,18.361-21.026v-28.3h-6.336V328.2c0,10.729-4.609,15.482-11.809,15.482-6.481,0-11.305-4.609-11.305-15.482v-28.73h-6.337ZM521.372,348h6.265V326.974h5.9c5.689,0.216,8.281,2.736,9.721,9.433,1.368,6.049,2.448,10.225,3.24,11.593h6.481c-1.008-1.872-2.16-6.553-3.744-13.321-1.153-5.041-3.385-8.5-7.129-9.793V324.67c5.112-1.728,9.145-5.977,9.145-12.385a12.086,12.086,0,0,0-3.817-9.217c-3.024-2.736-7.344-3.96-14.041-3.96a65.257,65.257,0,0,0-12.025,1.008V348Zm6.265-43.492a25.771,25.771,0,0,1,6.192-.576c6.625,0.072,11.161,2.808,11.161,9.073,0,5.544-4.248,9.217-10.945,9.217h-6.408V304.508Zm57.6,15.554H566.372V304.724h19.946v-5.256h-26.21V348H587.4v-5.256H566.372v-17.5h18.866v-5.184Z"/>
</svg>
